<svg width="106" height="106" viewBox="0 0 106 106" fill="none" xmlns="http://www.w3.org/2000/svg">
<path d="M52.9997 0.333313C59.9837 0.333313 66.6817 3.10771 71.6202 8.04617C76.5586 12.9846 79.333 19.6826 79.333 26.6666C79.333 33.6507 76.5586 40.3487 71.6202 45.2871C66.6817 50.2256 59.9837 53 52.9997 53C46.0156 53 39.3177 50.2256 34.3792 45.2871C29.4407 40.3487 26.6663 33.6507 26.6663 26.6666C26.6663 19.6826 29.4407 12.9846 34.3792 8.04617C39.3177 3.10771 46.0156 0.333313 52.9997 0.333313ZM52.9997 66.1666C82.098 66.1666 105.666 77.9508 105.666 92.5V105.667H0.333008V92.5C0.333008 77.9508 23.9013 66.1666 52.9997 66.1666Z" fill="#D2D2D2"/>
</svg>
